<?xml version="1.0" encoding="utf-8"?>
<!-- Generator: Adobe Illustrator 15.0.2, SVG Export Plug-In . SVG Version: 6.00 Build 0)  -->
<!DOCTYPE svg PUBLIC "-//W3C//DTD SVG 1.1//EN" "http://www.w3.org/Graphics/SVG/1.1/DTD/svg11.dtd">
<svg version="1.1" id="Layer_1" xmlns="http://www.w3.org/2000/svg" xmlns:xlink="http://www.w3.org/1999/xlink" x="0px" y="0px"
	 width="199.928px" height="92.854px" viewBox="0 0 199.928 92.854" enable-background="new 0 0 199.928 92.854"
	 xml:space="preserve">
<g>
	<path fill="#CCC7C4" d="M5.836,64.923h0.773c1.922,0.281,2.883,1.125,2.883,2.531v0.211c0,1.77-1.664,3.551-4.992,5.344
		L3.938,73.22v0.141c0.926,0.973,1.98,1.559,3.164,1.758h1.125c2.93,0,5.789-2.367,8.578-7.102h0.141
		c0.094,0,0.141,0.07,0.141,0.211c-1.617,3.727-3.914,6.211-6.891,7.453c-1.09,0.422-2.121,0.633-3.094,0.633H6.258
		c-2.355,0-4.254-0.938-5.695-2.813C0.188,72.704,0,71.954,0,71.251c0-1.465,0.844-3.152,2.531-5.063
		C3.68,65.345,4.781,64.923,5.836,64.923z M2.883,69.704c0,1.102,0.258,2.063,0.773,2.883c2.438-1.523,3.656-3.07,3.656-4.641
		v-0.141c-0.164-1.219-0.703-1.828-1.617-1.828H4.992c-0.973,0-1.605,0.797-1.898,2.391L2.883,69.704z"/>
	<path fill="#CCC7C4" d="M17.701,64.009l0.141,0.141v0.422c-0.703,0.563-1.055,1.359-1.055,2.391v5.133
		c0,1.875,0.539,2.813,1.617,2.813c1.371,0,3.059-1.008,5.063-3.023c1.125-1.313,1.992-2.555,2.602-3.727
		c0-0.234,0.117-0.445,0.352-0.633h0.07l0.211,0.211v0.141c-0.316,1.348-1.441,3.129-3.375,5.344
		c-2.215,2.063-4.23,3.094-6.047,3.094h-0.492c-1.383,0-2.32-0.891-2.813-2.672l-0.141-1.758v-6.188
		c0-0.398,0.586-0.727,1.758-0.984C15.592,64.618,16.295,64.384,17.701,64.009z M15.873,55.009h0.422
		c0.574,0,1.09,0.516,1.547,1.547v0.422c0,0.773-0.539,1.336-1.617,1.688h-0.422c-0.551,0-1.066-0.516-1.547-1.547v-0.422
		C14.256,55.958,14.795,55.396,15.873,55.009z"/>
	<path fill="#CCC7C4" d="M30.551,65.011h0.703c1.137,0,2.168,0.352,3.094,1.055c1.254-0.703,2.191-1.055,2.813-1.055
		c0.07,0,0.141,0.094,0.211,0.281c0,0.164-0.258,0.492-0.773,0.984c-0.188,0.223-0.281,1.09-0.281,2.602v7.523l0.141,0.141
		c0.633-0.246,2.063-1.488,4.289-3.727c1.559-1.828,2.754-3.492,3.586-4.992l0.07-0.07h0.141c0.141,0.047,0.211,0.188,0.211,0.422
		c-0.762,2.25-2.637,4.664-5.625,7.242c-0.691,0.609-1.605,1.289-2.742,2.039l-0.07,0.281v4.008c0,2.766-1.219,5.578-3.656,8.438
		c-1.852,1.781-3.656,2.672-5.414,2.672h-0.492c-1.863,0-2.965-1.289-3.305-3.867c0-2.367,2.531-5.461,7.594-9.281
		c1.5-0.949,2.25-1.535,2.25-1.758v-3.023l-0.141-0.141c-1.5,1.031-2.93,1.547-4.289,1.547H28.23c-1.348,0-2.52-0.75-3.516-2.25
		c-0.328-0.762-0.492-1.559-0.492-2.391c0-3.059,1.617-5.215,4.852-6.469C29.566,65.081,30.059,65.011,30.551,65.011z
		 M33.152,79.003c-1.137,0.762-2.449,1.863-3.938,3.305c-1.699,2.039-2.73,3.891-3.094,5.555c-0.141,0.504-0.211,0.926-0.211,1.266
		v0.211c0.246,1.828,0.926,2.742,2.039,2.742h0.422c1.477,0,2.813-1.289,4.008-3.867c0.609-1.5,0.914-3.352,0.914-5.555v-3.516
		L33.152,79.003z M27.176,70.284c0,2.086,0.75,3.586,2.25,4.5l0.633,0.141h0.563c0.75,0,1.641-0.398,2.672-1.195v-4.922
		c0-1.5-0.539-2.508-1.617-3.023l-0.914-0.141H30.27c-1.5,0-2.508,1.125-3.023,3.375L27.176,70.284z"/>
	<path fill="#CCC7C4" d="M50.221,45.728h0.422c1.289,0,2.156,0.656,2.602,1.969l0.141,1.266c0,3.586-2.625,9.094-7.875,16.523v2.391
		c2.25-2.297,4.008-3.445,5.273-3.445h0.563c1.5,0,2.25,1.008,2.25,3.023v5.555c0,1.172,0.305,1.758,0.914,1.758h0.281
		c1.465-0.316,3.434-2.449,5.906-6.398l0.633-1.055h0.141l0.141,0.141v0.141c-1.805,4.066-4.195,6.762-7.172,8.086l-1.266,0.211
		h-0.563c-1.16,0-1.816-0.82-1.969-2.461v-5.695c0-1.008-0.305-1.594-0.914-1.758h-0.563c-0.832,0-2.051,1.008-3.656,3.023v5.906
		c0,0.398-0.539,0.68-1.617,0.844c-0.973,0.375-1.746,0.563-2.32,0.563l-0.07-0.07v-0.141c0.656-0.621,0.984-1.535,0.984-2.742
		V57.048c0-3.105,1.078-6.105,3.234-9C47.162,46.501,48.662,45.728,50.221,45.728z M45.51,55.431v8.578h0.141
		c3.563-5.766,5.344-10.5,5.344-14.203v-0.914c-0.141-1.406-0.539-2.227-1.195-2.461h-0.352c-2.133,0-3.422,2.344-3.867,7.031
		L45.51,55.431z"/>
	<path fill="#CCC7C4" d="M65.672,53.532h0.07l0.141,0.141v0.211c-0.797,0.598-1.195,1.371-1.195,2.32v4.078l3.094-1.195
		c0.199,0.059,0.34,0.176,0.422,0.352v0.211c-0.141,0.164-1.313,0.68-3.516,1.547v12.305c0,1.078,0.305,1.617,0.914,1.617h0.141
		c1.57,0,3.281-1.031,5.133-3.094c1.102-1.477,2.016-2.883,2.742-4.219l0.352-0.07c0.141,0.047,0.211,0.188,0.211,0.422
		c-0.727,1.77-2.18,3.785-4.359,6.047c-1.723,1.406-3.387,2.109-4.992,2.109h-0.844c-1.254,0-2.027-0.539-2.32-1.617l-0.141-2.813
		v-9.211h-0.07l-2.602,0.914H58.57l-0.211-0.211c0-0.328,0.914-0.844,2.742-1.547l0.422-0.281V55.22
		c0-0.352,0.445-0.609,1.336-0.773C64.488,53.837,65.426,53.532,65.672,53.532z"/>
</g>
<g>
	<path fill="#CCC7C4" d="M124.008,64.009l0.07,0.07v0.281c-0.703,0.551-1.055,0.996-1.055,1.336
		c-0.094,0.398-0.141,0.914-0.141,1.547v4.359c0,2.344,0.375,3.516,1.125,3.516h0.07c0.902,0,2.355-1.242,4.359-3.727v-5.906
		c0-0.211,1.313-0.703,3.938-1.477l0.211,0.211c0,0.234-0.258,0.516-0.773,0.844c-0.188,0.445-0.281,0.891-0.281,1.336v7.594
		c0,0.668,0.281,1.043,0.844,1.125c0.809,0,1.934-0.68,3.375-2.039c1.547-1.84,2.695-3.621,3.445-5.344l0.281-0.281h0.07
		c0.188,0.07,0.281,0.234,0.281,0.492v0.07c-2.906,5.531-6,8.297-9.281,8.297c-1.406,0-2.109-1.219-2.109-3.656h-0.07
		c-1.875,2.438-3.703,3.656-5.484,3.656h-0.492c-1.594,0-2.391-1.055-2.391-3.164v-7.734c0-0.316,1.313-0.785,3.938-1.406H124.008z"
		/>
	<path fill="#CCC7C4" d="M142.412,64.923h0.773c1.922,0.281,2.883,1.125,2.883,2.531v0.211c0,1.77-1.664,3.551-4.992,5.344
		l-0.563,0.211v0.141c0.926,0.973,1.98,1.559,3.164,1.758h1.125c2.93,0,5.789-2.367,8.578-7.102h0.141
		c0.094,0,0.141,0.07,0.141,0.211c-1.617,3.727-3.914,6.211-6.891,7.453c-1.09,0.422-2.121,0.633-3.094,0.633h-0.844
		c-2.355,0-4.254-0.938-5.695-2.813c-0.375-0.797-0.563-1.547-0.563-2.25c0-1.465,0.844-3.152,2.531-5.063
		C140.256,65.345,141.357,64.923,142.412,64.923z M139.459,69.704c0,1.102,0.258,2.063,0.773,2.883
		c2.438-1.523,3.656-3.07,3.656-4.641v-0.141c-0.164-1.219-0.703-1.828-1.617-1.828h-0.703c-0.973,0-1.605,0.797-1.898,2.391
		L139.459,69.704z"/>
	<path fill="#CCC7C4" d="M156.246,64.923h0.773c1.922,0.281,2.883,1.125,2.883,2.531v0.211c0,1.77-1.664,3.551-4.992,5.344
		l-0.563,0.211v0.141c0.926,0.973,1.98,1.559,3.164,1.758h1.125c2.93,0,5.789-2.367,8.578-7.102h0.141
		c0.094,0,0.141,0.07,0.141,0.211c-1.617,3.727-3.914,6.211-6.891,7.453c-1.09,0.422-2.121,0.633-3.094,0.633h-0.844
		c-2.355,0-4.254-0.938-5.695-2.813c-0.375-0.797-0.563-1.547-0.563-2.25c0-1.465,0.844-3.152,2.531-5.063
		C154.09,65.345,155.191,64.923,156.246,64.923z M153.293,69.704c0,1.102,0.258,2.063,0.773,2.883
		c2.438-1.523,3.656-3.07,3.656-4.641v-0.141c-0.164-1.219-0.703-1.828-1.617-1.828h-0.703c-0.973,0-1.605,0.797-1.898,2.391
		L153.293,69.704z"/>
	<path fill="#CCC7C4" d="M168.393,63.446l0.141,0.211v0.141c0,0.129-0.164,0.434-0.492,0.914l-0.211,1.055v2.18
		c2.379-2.438,4.395-3.656,6.047-3.656c1.5,0,2.344,0.938,2.531,2.813v6.328c0,0.586,0.258,0.914,0.773,0.984
		c1.84-0.199,4.09-2.52,6.75-6.961c0.129-0.316,0.27-0.504,0.422-0.563h0.07c0.188,0.07,0.281,0.234,0.281,0.492
		c-2.754,5.578-5.824,8.367-9.211,8.367c-1.453,0-2.18-0.914-2.18-2.742v-5.836c0-0.938-0.352-1.406-1.055-1.406h-0.07
		c-0.996,0-2.215,0.867-3.656,2.602l-0.703,0.773v5.555c0,0.469-0.234,0.703-0.703,0.703c-0.012,0.07-0.926,0.375-2.742,0.914
		l-0.141-0.211v-0.352c0.422-0.352,0.633-1.313,0.633-2.883v-7.875c0-0.375,0.609-0.703,1.828-0.984
		C167.561,63.634,168.123,63.446,168.393,63.446z"/>
	<path fill="#CCC7C4" d="M186.92,62.04l0.211,0.141l-0.563,2.039c3.328,2.473,4.992,4.77,4.992,6.891
		c0,1.242-0.586,2.484-1.758,3.727l-0.773,0.563l0.07,0.07c4.758,0,8.203-2.508,10.336-7.523l0.281-0.211l0.211,0.211v0.211
		c-1.242,3.047-2.883,5.203-4.922,6.469c-1.77,1.125-4.605,1.688-8.508,1.688h-1.688c-1.324,0-2.379-0.563-3.164-1.688v-0.141
		c0.129-0.785,0.738-1.676,1.828-2.672l0.281-0.07c0.129,0.105,0.293,0.645,0.492,1.617c0.598,1.266,1.465,1.898,2.602,1.898h0.422
		c1.734-0.234,2.602-1.008,2.602-2.32v-0.141c0-1.664-1.453-3.539-4.359-5.625h-0.07l-2.25,3.516
		c-0.996,1.301-2.098,2.543-3.305,3.727h-0.07l-0.141-0.141v-0.141c2.473-2.684,3.762-4.348,3.867-4.992
		c1.336-2.508,2.367-4.852,3.094-7.031l0.07-0.07H186.92z"/>
</g>
<g>
	<path fill="#CCC7C4" d="M96.156,45.251h1.406c4.375,0,8.156,1.781,11.344,5.344c2.313,3.063,3.469,6.656,3.469,10.781
		c0,6.766-2.813,13.484-8.438,20.156c-2.953,3.063-4.609,4.594-4.969,4.594v0.281c5.172,2.625,8.172,3.938,9,3.938h1.5
		c2.578,0,5.266-1.906,8.063-5.719c1.328-2.547,2.047-3.828,2.156-3.844l0.375-0.094c0.188,0.234,0.281,0.453,0.281,0.656v0.094
		c-0.5,1.781-1.938,4.063-4.313,6.844c-2.766,2.688-5.703,4.031-8.813,4.031h-1.031c-2.891,0-6.391-1.156-10.5-3.469h-0.094
		c-4.703,2.313-8.609,3.469-11.719,3.469h-1.406c-3.078,0-5.141-0.844-6.188-2.531L76,88.282c0-2.5,2.188-4.219,6.563-5.156
		l1.219-0.094h0.938c2.5,0,6.719,0.906,12.656,2.719c3.375-3.766,5.781-7.922,7.219-12.469c1.5-4.438,2.25-8.594,2.25-12.469
		c0-6.016-1.969-10.453-5.906-13.313c-1.344-0.813-2.719-1.219-4.125-1.219h-1.406c-4.047,0-7.391,2.125-10.031,6.375
		c-1.5,2.875-2.25,5.5-2.25,7.875v0.844c0,3.328,1.313,5.953,3.938,7.875c0.828,0.5,1.609,0.75,2.344,0.75h1.219
		c2.828,0,4.703-1.688,5.625-5.063l0.094-1.406c-0.344-3.438-1.406-5.156-3.188-5.156H92.5l-1.125,0.094l-0.094-0.281
		c0.578-1.375,1.672-2.063,3.281-2.063h0.75c1.859,0,3.078,1.063,3.656,3.188l0.188,1.594c0,3.969-1.875,7.031-5.625,9.188
		c-1.672,0.75-3.141,1.125-4.406,1.125h-0.094c-1.906-0.172-3.438-0.516-4.594-1.031c-2.266-1.109-3.797-2.641-4.594-4.594
		c-0.688-1.531-1.031-2.969-1.031-4.313c0-4.5,2.188-8.625,6.563-12.375C88.828,46.47,92.422,45.251,96.156,45.251z M78.25,87.063
		c0,1.078,0.719,2.047,2.156,2.906c1.031,0.563,2.25,0.844,3.656,0.844h1.594c2.672,0,5.484-0.813,8.438-2.438v-0.094
		c-4.078-2.5-7.516-3.75-10.313-3.75h-1.688C79.531,84.767,78.25,85.61,78.25,87.063z"/>
</g>
<image display="none" overflow="visible" width="201" height="93" xlink:href="../../ai_psd_source/Untitled-1.png"  transform="matrix(1 0 0 1 -0.5 0.3135)">
</image>
<path fill="#DB5B5B" d="M66.854,33.517c0.542,0,1.043-0.168,1.458-0.454l6.921,10.735v4.308c6.325-4.314,14.455-6.912,23.325-6.912
	c8.669,0,16.627,2.483,22.889,6.624v-3.874h0.005l7.172-10.897c0.419,0.294,0.927,0.47,1.478,0.47c1.423,0,2.576-1.153,2.576-2.576
	c0-1.423-1.153-2.577-2.576-2.577c-1.424,0-2.577,1.154-2.577,2.577c0,0.316,0.065,0.616,0.169,0.896
	c-3.631,1.471-10.265,3.776-11.946,1.769c-2.066-2.466,2.266-10.086,4.76-14.027c0.378,0.218,0.811,0.352,1.279,0.352
	c1.423,0,2.577-1.153,2.577-2.576c0-1.424-1.154-2.577-2.577-2.577c-1.423,0-2.577,1.153-2.577,2.577
	c0,0.635,0.238,1.208,0.619,1.657c-3.295,2.569-9.296,6.796-11.975,5.805c-4.351-1.611-7.156-14.023-8.226-19.713
	c1.187-0.23,2.084-1.273,2.084-2.526c0-1.424-1.154-2.577-2.577-2.577c-1.423,0-2.576,1.153-2.576,2.577
	c0,1.246,0.885,2.285,2.061,2.524c-1.119,5.675-4.025,18.048-8.364,19.715c-2.848,1.092-9.409-3.242-12.961-5.836
	c0.365-0.444,0.593-1.006,0.593-1.626c0-1.424-1.153-2.577-2.576-2.577c-1.424,0-2.577,1.153-2.577,2.577
	c0,1.423,1.153,2.576,2.577,2.576c0.438,0,0.844-0.12,1.205-0.312c2.483,3.954,6.753,11.535,4.693,13.987
	c-1.684,2.004-8.316-0.299-11.946-1.769c0.104-0.28,0.169-0.58,0.169-0.896c0-1.423-1.153-2.577-2.577-2.577
	s-2.577,1.154-2.577,2.577C64.277,32.364,65.43,33.517,66.854,33.517z"/>
</svg>
