<?xml version="1.0" encoding="utf-8"?>
<!-- Generator: Adobe Illustrator 15.0.2, SVG Export Plug-In . SVG Version: 6.00 Build 0)  -->
<!DOCTYPE svg PUBLIC "-//W3C//DTD SVG 1.1//EN" "http://www.w3.org/Graphics/SVG/1.1/DTD/svg11.dtd">
<svg version="1.1" xmlns="http://www.w3.org/2000/svg" xmlns:xlink="http://www.w3.org/1999/xlink" x="0px" y="0px" width="78px"
	 height="78px" viewBox="0 0 78 78" enable-background="new 0 0 78 78" xml:space="preserve">
<g id="tip_x5F_on">
	<rect fill="#E89BA1" width="26" height="26"/>
	<rect x="26" y="26" fill="#E4DAD3" width="26" height="26"/>
	<rect x="26" fill="#BB625E" width="26" height="26"/>
	<rect y="26" fill="#BB625E" width="26" height="26"/>
	<rect x="52" y="26" fill="#BB625E" width="26" height="26"/>
	<rect x="52" fill="#E89BA1" width="26" height="26"/>
	<rect y="52" fill="#E89BA1" width="26" height="26"/>
	<rect x="26" y="52" fill="#BB625E" width="26" height="26"/>
	<rect x="52" y="52" fill="#E89BA1" width="26" height="26"/>
	<g>
		<path fill="#231F20" d="M45.222,39.998c-0.948-1.131,2.127-5.503,2.127-5.503s-3.5,3.031-4.77,2.563
			c-1.896-0.702-2.916-7.546-2.916-7.546s-1.079,6.818-2.972,7.546c-1.34,0.514-5.137-2.563-5.137-2.563s3.058,4.375,2.11,5.503
			c-0.787,0.937-4.803-0.938-4.803-0.938l2.835,4.396H47.13l2.895-4.396C50.024,39.061,46.007,40.936,45.222,39.998z"/>
		<circle fill="#231F20" stroke="#231F20" stroke-miterlimit="10" cx="39.662" cy="29.616" r="0.862"/>
		<circle fill="#231F20" stroke="#231F20" stroke-miterlimit="10" cx="47.242" cy="34.561" r="0.862"/>
		<circle fill="#231F20" stroke="#231F20" stroke-miterlimit="10" cx="50.023" cy="39.106" r="0.862"/>
		<circle fill="#231F20" stroke="#231F20" stroke-miterlimit="10" cx="28.862" cy="39.106" r="0.862"/>
		<circle fill="#231F20" stroke="#231F20" stroke-miterlimit="10" cx="31.691" cy="34.561" r="0.862"/>
		<rect x="31.665" y="43" fill="#231F20" width="14.971" height="1"/>
		<rect x="33.646" y="45" fill="#231F20" width="10.99" height="1"/>
		<polygon fill="#231F20" points="46.334,49 32.552,49 33.103,47 45.784,47 		"/>
	</g>
</g>
<g id="tip_x5F_off">
	<rect fill="#E4DAD3" width="26" height="26"/>
	<rect x="26" y="26" fill="#E4DAD3" width="26" height="26"/>
	<rect x="26" fill="#987A64" width="26" height="26"/>
	<rect y="26" fill="#987A64" width="26" height="26"/>
	<rect x="52" y="26" fill="#987A64" width="26" height="26"/>
	<rect x="52" fill="#E4DAD3" width="26" height="26"/>
	<rect y="52" fill="#E4DAD3" width="26" height="26"/>
	<rect x="26" y="52" fill="#987A64" width="26" height="26"/>
	<rect x="52" y="52" fill="#E4DAD3" width="26" height="26"/>
	<g>
		<path fill="#231F20" d="M45.222,39.998c-0.948-1.131,2.127-5.503,2.127-5.503s-3.5,3.031-4.77,2.563
			c-1.896-0.702-2.916-7.546-2.916-7.546s-1.079,6.818-2.972,7.546c-1.34,0.514-5.137-2.563-5.137-2.563s3.058,4.375,2.11,5.503
			c-0.787,0.937-4.803-0.938-4.803-0.938l2.835,4.396H47.13l2.895-4.396C50.024,39.061,46.007,40.936,45.222,39.998z"/>
		<circle fill="#231F20" stroke="#231F20" stroke-miterlimit="10" cx="39.662" cy="29.616" r="0.862"/>
		<circle fill="#231F20" stroke="#231F20" stroke-miterlimit="10" cx="47.242" cy="34.561" r="0.862"/>
		<circle fill="#231F20" stroke="#231F20" stroke-miterlimit="10" cx="50.023" cy="39.106" r="0.862"/>
		<circle fill="#231F20" stroke="#231F20" stroke-miterlimit="10" cx="28.862" cy="39.106" r="0.862"/>
		<circle fill="#231F20" stroke="#231F20" stroke-miterlimit="10" cx="31.691" cy="34.561" r="0.862"/>
		<rect x="31.665" y="43" fill="#231F20" width="14.971" height="1"/>
		<rect x="33.646" y="45" fill="#231F20" width="10.99" height="1"/>
		<polygon fill="#231F20" points="46.334,49 32.552,49 33.103,47 45.784,47 		"/>
	</g>
</g>
</svg>
