<?xml version="1.0" encoding="utf-8"?>
<!-- Generator: Adobe Illustrator 15.0.2, SVG Export Plug-In . SVG Version: 6.00 Build 0)  -->
<!DOCTYPE svg PUBLIC "-//W3C//DTD SVG 1.1//EN" "http://www.w3.org/Graphics/SVG/1.1/DTD/svg11.dtd">
<svg version="1.1" id="Layer_1" xmlns="http://www.w3.org/2000/svg" xmlns:xlink="http://www.w3.org/1999/xlink" x="0px" y="0px"
	 width="50.703px" height="57.174px" viewBox="0 0 50.703 57.174" enable-background="new 0 0 50.703 57.174" xml:space="preserve">
<circle fill="#BB625E" cx="25.581" cy="7.046" r="2.738"/>
<circle fill="#BB625E" cx="2.738" cy="21.625" r="2.738"/>
<circle fill="#BB625E" cx="47.965" cy="21.625" r="2.738"/>
<circle fill="#BB625E" cx="35.913" cy="43.893" r="2.739"/>
<circle fill="#BB625E" cx="14.791" cy="43.893" r="2.739"/>
<polygon fill="#BB625E" points="14.791,44.927 2.738,22.542 2.738,20.821 14.791,43.205 "/>
<polygon fill="#BB625E" points="35.913,45.73 47.965,23.347 47.965,21.625 35.913,44.008 "/>
<polygon fill="#BB625E" points="25.736,7.448 48.872,22.026 48.872,20.993 25.736,6.416 "/>
<polygon fill="#BB625E" points="25.226,7.448 2.089,22.026 2.089,20.993 25.226,6.416 "/>
<rect x="15.527" y="43.721" fill="#BB625E" width="19.398" height="1"/>
<path fill="#E4DAD3" d="M42.566,2.84c0,0-0.185-2.84-4.593-2.84c-4.407,0-6.77,13.401-10.773,27.131
	c-2.27,7.783-7.576,24.042-12.243,27.228c-4.017,2.743-6.727,2.208-7.64,1.372c-1.175-1.077-1.744-4.036-2.938-3.428
	c-1.991,1.012-1.2,2.84,0.294,3.722c0.987,0.583,4.408,2.154,10.382,0.196c6.136-2.012,11.009-8.448,16.553-27.943
	c4.31-15.153,3.134-15.937,6.66-26.124c0,0,0.293-0.881,0.748-1.002c0.424-0.112,1.082,0.069,1.309,0.513
	c0.766,1.491-1.959,0.686-1.666,3.428c0.16,1.487,2.156,1.567,3.233,0.49C43.068,4.408,42.566,2.84,42.566,2.84z"/>
<rect x="22.457" y="22.728" fill="#E4DAD3" width="15.918" height="1.993"/>
</svg>
