<?xml version="1.0" encoding="utf-8"?>
<!-- Generator: Adobe Illustrator 15.0.2, SVG Export Plug-In . SVG Version: 6.00 Build 0)  -->
<!DOCTYPE svg PUBLIC "-//W3C//DTD SVG 1.1//EN" "http://www.w3.org/Graphics/SVG/1.1/DTD/svg11.dtd">
<svg version="1.1" id="Layer_1" xmlns="http://www.w3.org/2000/svg" xmlns:xlink="http://www.w3.org/1999/xlink" x="0px" y="0px"
	 width="23.886px" height="20.746px" viewBox="0 0 23.886 20.746" enable-background="new 0 0 23.886 20.746" xml:space="preserve">
<g>
	<path fill="#231F20" d="M17.721,11.744c-0.948-1.131,2.127-5.503,2.127-5.503s-3.5,3.031-4.769,2.563
		c-1.896-0.702-2.917-7.546-2.917-7.546s-1.079,6.818-2.972,7.546c-1.34,0.514-5.137-2.563-5.137-2.563s3.058,4.375,2.11,5.503
		c-0.787,0.937-4.802-0.938-4.802-0.938l2.835,4.396H19.63l2.894-4.396C22.524,10.807,18.507,12.682,17.721,11.744z"/>
	<circle fill="#231F20" stroke="#231F20" stroke-miterlimit="10" cx="12.162" cy="1.362" r="0.862"/>
	<circle fill="#231F20" stroke="#231F20" stroke-miterlimit="10" cx="19.741" cy="6.307" r="0.862"/>
	<circle fill="#231F20" stroke="#231F20" stroke-miterlimit="10" cx="22.524" cy="10.853" r="0.862"/>
	<circle fill="#231F20" stroke="#231F20" stroke-miterlimit="10" cx="1.362" cy="10.853" r="0.862"/>
	<circle fill="#231F20" stroke="#231F20" stroke-miterlimit="10" cx="4.191" cy="6.307" r="0.862"/>
	<rect x="4.166" y="14.746" fill="#231F20" width="14.97" height="1"/>
	<rect x="6.146" y="16.746" fill="#231F20" width="10.99" height="1"/>
	<polygon fill="#231F20" points="18.834,20.746 5.052,20.746 5.602,18.746 18.284,18.746 	"/>
</g>
</svg>
