<?xml version="1.0" encoding="utf-8"?>
<!-- Generator: Adobe Illustrator 15.0.2, SVG Export Plug-In . SVG Version: 6.00 Build 0)  -->
<!DOCTYPE svg PUBLIC "-//W3C//DTD SVG 1.1//EN" "http://www.w3.org/Graphics/SVG/1.1/DTD/svg11.dtd">
<svg version="1.1" id="Layer_1" xmlns="http://www.w3.org/2000/svg" xmlns:xlink="http://www.w3.org/1999/xlink" x="0px" y="0px"
	 width="56.886px" height="49.728px" viewBox="0 0 56.886 49.728" enable-background="new 0 0 56.886 49.728" xml:space="preserve">
<g>
	<path fill="#231F20" d="M42.553,27.958c-2.313-2.761,5.194-13.438,5.194-13.438s-8.545,7.402-11.645,6.256
		C31.471,19.063,28.98,2.352,28.98,2.352s-2.635,16.65-7.256,18.425c-3.271,1.255-12.543-6.256-12.543-6.256
		s7.467,10.683,5.152,13.438c-1.921,2.287-11.728-2.291-11.728-2.291l6.922,10.738h37.686l7.066-10.738
		C54.28,25.667,44.472,30.248,42.553,27.958z"/>
	<circle fill="#231F20" stroke="#231F20" stroke-miterlimit="10" cx="28.979" cy="2.605" r="2.105"/>
	<circle fill="#231F20" stroke="#231F20" stroke-miterlimit="10" cx="47.487" cy="14.68" r="2.105"/>
	<circle fill="#231F20" stroke="#231F20" stroke-miterlimit="10" cx="54.28" cy="25.78" r="2.105"/>
	<circle fill="#231F20" stroke="#231F20" stroke-miterlimit="10" cx="2.605" cy="25.78" r="2.105"/>
	<circle fill="#231F20" stroke="#231F20" stroke-miterlimit="10" cx="9.513" cy="14.68" r="2.105"/>
	<rect x="9.451" y="35.946" fill="#231F20" width="37.759" height="4"/>
	<rect x="13.386" y="40.946" fill="#231F20" width="30" height="3"/>
	<polygon fill="#231F20" points="45.271,49.728 11.615,49.728 12.959,44.946 43.927,44.946 	"/>
</g>
</svg>
